<?xml version="1.0" standalone="no"?>
<!DOCTYPE svg PUBLIC "-//W3C//DTD SVG 20010904//EN"
 "http://www.w3.org/TR/2001/REC-SVG-20010904/DTD/svg10.dtd">
<svg version="1.0" xmlns="http://www.w3.org/2000/svg"
 width="1000.000000pt" height="1099.000000pt" viewBox="0 0 1000.000000 1099.000000"
 preserveAspectRatio="xMidYMid meet">

<g transform="translate(0.000000,1099.000000) scale(0.100000,-0.100000)"
fill="#000000" stroke="none">
<path d="M3314 9222 c-82 -66 -39 -182 67 -182 47 0 89 47 89 100 0 81 -96
131 -156 82z"/>
<path d="M6079 9211 c-20 -20 -29 -40 -29 -61 0 -85 76 -133 150 -95 91 47 53
185 -50 185 -33 0 -48 -6 -71 -29z"/>
<path d="M2290 9125 l0 -75 105 0 105 0 0 -315 0 -315 90 0 90 0 0 315 0 315
105 0 105 0 0 75 0 75 -300 0 -300 0 0 -75z"/>
<path d="M5260 9070 c0 -71 -1 -130 -2 -130 -2 0 -25 11 -52 25 -125 64 -286
3 -353 -133 -23 -48 -28 -70 -28 -137 0 -68 4 -89 29 -138 70 -144 253 -202
373 -118 l43 31 0 -25 c0 -24 2 -25 75 -25 l75 0 0 390 0 390 -80 0 -80 0 0
-130z m-70 -248 c140 -70 79 -285 -77 -269 -79 8 -125 60 -125 143 0 80 61
144 137 144 17 0 46 -8 65 -18z"/>
<path d="M3775 8975 c-21 -9 -49 -25 -62 -37 l-23 -21 0 26 c0 27 0 27 -75 27
l-75 0 0 -390 0 -390 80 0 80 0 0 137 c0 134 0 136 19 119 29 -27 90 -45 148
-46 69 0 165 49 210 108 109 143 68 359 -84 449 -56 32 -157 41 -218 18z m119
-149 c80 -34 108 -147 53 -219 -68 -90 -216 -64 -248 43 -37 122 77 225 195
176z"/>
<path d="M4370 8981 c-48 -15 -85 -39 -121 -78 -64 -66 -74 -96 -74 -208 0
-78 4 -108 19 -135 26 -49 84 -108 130 -132 79 -41 195 -33 254 17 37 31 40
31 34 0 l-4 -25 81 0 81 0 0 275 0 275 -81 0 c-68 0 -80 -2 -75 -15 7 -20 3
-19 -47 6 -45 24 -153 35 -197 20z m167 -158 c48 -22 73 -66 73 -128 0 -62
-25 -106 -73 -128 -62 -30 -128 -16 -177 38 -21 22 -25 36 -25 90 0 54 4 68
25 90 49 54 115 68 177 38z"/>
<path d="M6425 8978 c-85 -30 -131 -97 -122 -181 6 -71 48 -110 152 -143 85
-27 115 -46 115 -74 0 -26 -25 -42 -62 -38 -24 2 -36 10 -46 31 -13 26 -16 27
-94 27 l-81 0 6 -35 c25 -151 242 -219 363 -113 85 75 94 185 21 256 -24 23
-55 39 -108 53 -96 28 -109 35 -109 63 0 42 58 49 88 11 18 -22 27 -25 91 -25
78 0 83 6 60 67 -34 90 -166 139 -274 101z"/>
<path d="M6970 8981 c-136 -45 -213 -148 -213 -286 0 -162 108 -278 273 -292
183 -15 323 111 324 292 0 167 -114 284 -284 291 -41 2 -86 0 -100 -5z m165
-165 c75 -49 76 -192 0 -242 -36 -24 -95 -28 -138 -11 -101 43 -104 218 -4
263 39 17 107 13 142 -10z"/>
<path d="M5552 8972 c-60 -2 -83 -6 -79 -15 2 -7 43 -130 91 -274 l88 -263 93
0 93 0 88 263 c48 144 89 268 92 275 3 10 -15 12 -84 10 l-88 -3 -46 -160
c-26 -88 -48 -166 -51 -173 -3 -8 -26 62 -53 155 -26 93 -51 174 -54 179 -4 5
-45 8 -90 6z"/>
<path d="M2910 8695 l0 -275 80 0 80 0 0 175 c0 173 0 176 25 200 20 21 34 25
85 25 l60 0 0 75 0 75 -61 0 c-54 0 -64 -3 -90 -29 l-29 -29 0 29 0 29 -75 0
-75 0 0 -275z"/>
<path d="M3290 8695 l0 -275 80 0 80 0 0 275 0 275 -80 0 -80 0 0 -275z"/>
<path d="M6070 8695 l0 -275 80 0 80 0 0 275 0 275 -80 0 -80 0 0 -275z"/>
<path d="M7411 8695 l-2 -275 85 0 86 0 0 179 0 180 26 20 c20 16 41 21 85 21
l59 0 0 75 0 75 -61 0 c-54 0 -64 -3 -90 -29 l-29 -29 0 29 0 29 -79 0 -78 0
-2 -275z"/>
<path d="M7196 8248 c-9 -12 -16 -33 -16 -45 0 -28 33 -63 60 -63 40 0 13 -56
-30 -62 -19 -2 -26 -10 -28 -30 -3 -26 -1 -28 32 -28 51 0 95 42 106 100 18
90 -12 150 -75 150 -24 0 -39 -7 -49 -22z"/>
<path d="M2669 8256 c-3 -3 -3 -23 -1 -45 l4 -41 114 0 114 0 0 -350 0 -350
50 0 50 0 2 348 3 347 118 3 117 3 0 44 0 45 -283 0 c-156 0 -286 -2 -288 -4z"/>
<path d="M5430 7865 l0 -395 50 0 50 0 0 395 0 395 -50 0 -50 0 0 -395z"/>
<path d="M3744 8022 c-100 -47 -164 -140 -172 -252 -2 -36 1 -83 7 -105 52
-193 279 -274 431 -154 l50 39 0 -40 0 -40 45 0 45 0 -2 278 -3 277 -42 3 -43
3 0 -35 c0 -41 -3 -43 -32 -16 -61 57 -205 78 -284 42z m181 -79 c59 -16 115
-87 129 -166 10 -55 -16 -135 -56 -174 -81 -79 -191 -82 -269 -8 -43 40 -59
83 -59 156 0 102 49 171 137 195 44 11 65 11 118 -3z"/>
<path d="M4947 8026 c-46 -17 -99 -56 -127 -95 -55 -78 -69 -219 -29 -310 24
-57 92 -125 147 -148 47 -20 155 -22 206 -4 66 23 139 100 160 169 7 20 4 22
-37 22 -39 0 -46 -4 -68 -37 -35 -53 -70 -75 -128 -81 -99 -9 -175 41 -200
133 -6 22 -11 43 -11 48 0 4 104 7 231 7 l232 0 -5 64 c-9 112 -72 197 -169
231 -51 18 -151 19 -202 1z m202 -94 c33 -24 71 -80 71 -103 0 -18 -11 -19
-176 -19 l-175 0 6 23 c27 85 96 131 189 123 36 -3 69 -12 85 -24z"/>
<path d="M5793 8010 c-97 -49 -153 -143 -153 -258 0 -156 83 -261 229 -293
126 -27 279 59 306 174 7 26 6 27 -36 27 -41 0 -46 -3 -66 -39 -40 -69 -147
-101 -226 -67 -59 25 -107 93 -107 152 l0 24 225 0 225 0 0 48 c0 105 -49 187
-139 234 -44 23 -66 28 -126 28 -60 0 -82 -5 -132 -30z m213 -71 c42 -20 74
-59 89 -106 l6 -23 -180 0 -181 0 15 38 c43 101 151 140 251 91z"/>
<path d="M6772 8019 c-103 -52 -120 -165 -37 -238 21 -18 67 -40 116 -56 103
-32 118 -41 129 -71 22 -57 -27 -114 -98 -114 -58 0 -111 42 -112 88 0 20 -5
22 -50 22 -45 0 -50 -2 -50 -22 1 -39 36 -104 72 -132 52 -39 132 -52 199 -32
93 28 139 85 139 175 0 48 -3 57 -38 91 -29 30 -57 44 -125 65 -104 33 -137
55 -137 94 0 38 30 62 83 68 36 4 48 1 75 -22 18 -15 32 -33 32 -41 0 -10 13
-14 45 -14 41 0 45 2 45 24 0 28 -35 82 -73 110 -43 31 -158 34 -215 5z"/>
<path d="M3230 7750 l0 -280 50 0 50 0 0 213 c0 256 -3 249 116 255 l74 4 0
45 0 45 -76 -4 c-69 -3 -79 -6 -100 -31 l-24 -28 0 30 c0 30 -1 31 -45 31
l-45 0 0 -280z"/>
<path d="M4230 8028 c0 -2 44 -127 98 -278 l97 -275 55 -3 56 -3 94 268 c52
147 96 273 98 280 3 9 -11 13 -47 13 l-50 0 -72 -220 c-41 -120 -76 -217 -79
-214 -3 3 -37 101 -76 217 l-71 212 -51 3 c-29 2 -52 2 -52 0z"/>
<path d="M6305 8018 c-2 -7 -4 -132 -2 -278 l2 -265 47 -3 47 -3 3 215 c4 259
-1 249 118 254 l80 4 0 44 0 44 -60 0 c-65 0 -129 -21 -131 -42 -1 -7 -4 -2
-8 12 -6 21 -14 26 -49 28 -28 2 -44 -1 -47 -10z"/>
<path d="M1604 7320 c-94 -19 -190 -85 -242 -168 -48 -74 -65 -149 -60 -261 3
-81 8 -106 34 -161 38 -80 106 -150 182 -186 76 -37 204 -45 283 -19 100 33
172 96 215 190 36 76 33 85 -23 85 l-48 0 -28 -61 c-22 -47 -39 -67 -75 -90
-151 -95 -332 -47 -409 109 -25 51 -28 67 -28 162 0 94 3 110 27 155 55 104
137 154 254 155 56 0 81 -5 122 -26 60 -30 108 -82 124 -136 11 -37 12 -38 61
-38 l50 0 -7 32 c-18 89 -80 172 -163 215 -90 48 -175 61 -269 43z"/>
<path d="M2150 6915 l0 -395 50 0 50 0 0 195 c0 157 3 202 15 226 34 64 128
89 192 49 58 -35 63 -57 63 -275 l0 -195 51 0 50 0 -3 218 c-3 215 -3 217 -30
263 -32 54 -59 74 -122 90 -60 15 -136 -3 -182 -43 l-34 -30 0 146 0 146 -50
0 -50 0 0 -395z"/>
<path d="M3429 7292 c-48 -39 -16 -122 48 -122 29 0 73 41 73 68 0 11 -9 31
-21 46 -25 31 -66 35 -100 8z"/>
<path d="M5363 7293 c-4 -10 -71 -186 -150 -392 -79 -205 -143 -375 -143 -377
0 -2 23 -4 51 -4 56 0 47 -12 104 138 l27 72 176 -2 177 -3 39 -102 39 -103
48 0 c31 0 49 4 49 12 0 6 -66 184 -147 395 l-148 383 -58 0 c-46 0 -59 -4
-64 -17z m138 -291 l67 -177 -135 -3 c-75 -1 -138 -1 -140 2 -6 6 131 365 136
360 3 -3 35 -84 72 -182z"/>
<path d="M8100 7160 l0 -150 -45 34 c-87 67 -212 69 -309 5 -134 -89 -170
-283 -78 -421 85 -129 277 -159 391 -61 l40 33 3 -37 c3 -37 4 -38 46 -41 l42
-3 0 395 0 396 -45 0 -45 0 0 -150z m-115 -169 c80 -36 120 -111 113 -211 -8
-111 -82 -180 -194 -180 -133 0 -218 119 -184 259 28 120 155 183 265 132z"/>
<path d="M2957 7090 c-85 -22 -164 -84 -203 -160 -26 -52 -30 -165 -9 -231 24
-70 101 -149 169 -172 152 -52 309 11 377 149 31 65 33 178 2 245 -57 127
-205 201 -336 169z m177 -117 c59 -42 88 -104 84 -178 -5 -81 -31 -131 -87
-167 -42 -27 -52 -29 -118 -26 -62 3 -76 7 -109 34 -53 42 -76 92 -76 162 0
68 14 107 50 146 67 72 177 84 256 29z"/>
<path d="M3857 7090 c-138 -35 -220 -143 -220 -290 0 -116 46 -202 140 -257
61 -35 181 -44 249 -18 60 23 112 70 135 120 27 59 25 65 -25 65 -40 0 -46 -3
-65 -35 -34 -58 -74 -77 -157 -73 -83 4 -129 31 -159 95 -69 144 20 312 165
313 51 0 121 -38 149 -82 22 -35 28 -38 69 -38 l45 0 -7 33 c-22 115 -185 200
-319 167z"/>
<path d="M4475 7091 c-59 -16 -85 -31 -129 -71 -116 -107 -122 -314 -13 -429
94 -99 263 -110 374 -25 29 22 93 116 93 137 0 4 -20 7 -44 7 -39 0 -46 -4
-70 -40 -34 -51 -77 -74 -146 -74 -98 -1 -169 55 -185 146 l-7 38 228 2 229 3
-2 61 c-2 106 -59 188 -155 229 -46 18 -133 27 -173 16z m162 -107 c35 -26 73
-81 73 -105 0 -18 -11 -19 -176 -19 l-176 0 7 28 c10 39 53 92 89 108 45 21
148 14 183 -12z"/>
<path d="M6775 7091 c-59 -15 -106 -44 -150 -93 -167 -186 -40 -488 205 -488
76 0 130 22 178 69 l32 33 0 -46 0 -46 45 0 45 0 0 280 0 280 -45 0 -45 0 0
-37 0 -36 -22 20 c-57 52 -172 82 -243 64z m140 -100 c52 -23 101 -80 116
-133 24 -89 -23 -200 -102 -240 -38 -20 -123 -24 -166 -7 -68 26 -112 100
-113 191 0 68 12 103 48 142 58 62 144 81 217 47z"/>
<path d="M8440 7085 c-64 -20 -111 -72 -117 -127 -10 -87 43 -143 170 -182
109 -34 127 -47 127 -96 0 -29 -6 -43 -25 -59 -74 -57 -167 -27 -189 62 -6 24
-11 27 -51 27 -43 0 -45 -1 -45 -30 0 -35 29 -97 57 -122 54 -49 174 -63 249
-29 23 10 54 36 70 57 25 32 29 46 29 100 0 53 -4 67 -25 89 -32 35 -68 53
-158 81 -89 27 -112 46 -112 90 0 43 30 64 91 64 35 0 52 -6 73 -25 14 -13 26
-31 26 -40 0 -11 11 -15 45 -15 39 0 45 3 45 21 0 40 -44 100 -91 124 -41 22
-119 26 -169 10z"/>
<path d="M3430 6800 l0 -280 45 0 45 0 0 280 0 280 -45 0 -45 0 0 -280z"/>
<path d="M5785 7068 c2 -7 31 -119 65 -248 87 -334 72 -300 134 -300 l53 0 54
204 c30 113 55 203 57 201 2 -2 27 -92 56 -202 l53 -198 55 -3 55 -3 71 274
c40 150 72 276 72 280 0 4 -22 7 -49 7 l-49 0 -25 -109 c-14 -60 -36 -157 -48
-215 -13 -59 -26 -101 -29 -94 -4 7 -31 104 -60 216 l-53 203 -50 -3 -50 -3
-56 -212 c-33 -125 -58 -206 -62 -195 -3 9 -26 106 -50 214 l-44 198 -52 0
c-37 0 -51 -4 -48 -12z"/>
<path d="M7280 6800 l0 -280 44 0 45 0 3 216 c3 213 3 216 27 235 18 15 39 19
97 19 l74 0 0 45 0 45 -65 0 c-66 0 -118 -17 -128 -42 -3 -7 -6 -1 -6 15 -1
25 -4 27 -46 27 l-45 0 0 -280z"/>
<path d="M4828 6179 c-531 -51 -1014 -342 -1310 -789 -400 -602 -394 -1385 14
-1981 256 -376 666 -650 1106 -739 390 -78 777 -30 1132 141 742 358 1137
1159 970 1967 -182 878 -1014 1488 -1912 1401z m487 -227 c491 -110 876 -406
1095 -842 185 -368 216 -802 85 -1196 -38 -117 -134 -307 -206 -409 -73 -103
-255 -289 -347 -355 -234 -168 -481 -266 -756 -300 -148 -19 -394 -8 -526 23
-624 148 -1080 617 -1207 1242 -28 138 -25 473 5 612 142 652 647 1130 1311
1238 125 21 427 13 546 -13z"/>
<path d="M4799 5185 c-180 -28 -356 -90 -498 -175 l-84 -50 -219 0 c-132 0
-218 -4 -216 -9 2 -5 44 -54 94 -108 l91 -98 -59 -64 c-81 -88 -135 -200 -155
-320 -14 -85 -14 -103 0 -189 57 -348 390 -579 732 -507 89 19 195 70 265 127
l56 46 94 -104 c51 -57 96 -104 99 -104 4 0 49 47 101 104 l95 104 45 -33
c106 -77 206 -113 335 -121 280 -18 528 151 622 423 33 99 38 253 9 348 -25
83 -78 181 -130 240 l-43 50 91 98 c50 54 93 103 94 108 2 5 -83 9 -213 9
l-217 0 -87 50 c-274 158 -602 221 -902 175z m406 -205 c72 -13 235 -61 235
-69 0 -3 -33 -23 -73 -43 -80 -42 -161 -108 -225 -183 -54 -62 -119 -190 -128
-250 -8 -57 -19 -58 -28 -2 -4 23 -25 79 -47 125 -64 132 -198 261 -340 327
-28 12 -47 25 -42 28 38 23 207 64 338 81 48 7 244 -2 310 -14z m-694 -299
c235 -74 353 -336 250 -556 -34 -73 -103 -153 -165 -189 -113 -66 -261 -74
-377 -19 -162 75 -245 215 -237 395 4 75 9 96 41 161 90 182 293 268 488 208z
m1230 -1 c285 -89 375 -470 160 -679 -164 -160 -421 -158 -579 3 -220 223
-127 587 173 682 62 20 174 17 246 -6z"/>
<path d="M4319 4496 c-60 -21 -96 -54 -125 -111 -107 -220 178 -423 349 -247
88 91 88 214 -2 303 -65 65 -141 84 -222 55z"/>
<path d="M5542 4497 c-166 -61 -197 -275 -55 -383 140 -106 343 -3 343 174 0
154 -147 260 -288 209z"/>
<path d="M2036 5678 c12 -85 57 -275 85 -365 105 -329 242 -555 428 -704 70
-58 168 -115 178 -106 7 8 -16 165 -38 252 -51 205 -143 428 -233 563 -67 102
-164 211 -252 283 -83 69 -153 119 -166 119 -5 0 -5 -19 -2 -42z"/>
<path d="M7882 5670 c-96 -67 -225 -196 -302 -300 -116 -158 -229 -425 -278
-660 -23 -110 -36 -210 -27 -210 19 0 113 58 176 109 186 149 323 375 428 704
48 150 100 407 83 407 -5 0 -41 -23 -80 -50z"/>
<path d="M2734 5358 c-4 -6 -7 -84 -7 -172 1 -334 71 -591 213 -778 55 -73
136 -146 148 -134 13 13 14 277 2 375 -33 265 -131 485 -292 658 -35 38 -60
58 -64 51z"/>
<path d="M7196 5319 c-125 -138 -224 -336 -267 -539 -19 -88 -23 -137 -23
-302 -1 -108 3 -200 8 -205 13 -13 148 138 193 218 55 97 98 228 123 375 24
137 35 351 23 443 l-8 65 -49 -55z"/>
<path d="M1916 4883 c12 -68 80 -266 131 -378 147 -330 338 -556 567 -671 110
-55 119 -56 110 -6 -13 73 -56 207 -100 316 -106 258 -246 456 -428 602 -83
67 -252 174 -274 174 -9 0 -11 -11 -6 -37z"/>
<path d="M7975 4866 c-294 -177 -500 -439 -630 -801 -31 -84 -75 -242 -75
-267 0 -32 183 63 290 149 192 156 371 449 480 783 46 142 56 190 38 190 -7 0
-53 -24 -103 -54z"/>
<path d="M2620 4421 c0 -15 42 -137 77 -221 103 -250 285 -486 449 -582 75
-44 172 -84 181 -75 24 25 -111 340 -208 483 -67 100 -192 225 -289 291 -104
70 -210 123 -210 104z"/>
<path d="M7313 4400 c-159 -75 -331 -223 -432 -374 -97 -143 -232 -458 -208
-483 9 -9 106 31 181 75 158 93 338 322 440 561 40 93 90 240 84 246 -2 3 -32
-9 -65 -25z"/>
<path d="M1750 4143 c0 -13 59 -116 119 -204 187 -280 425 -504 634 -599 117
-53 327 -103 327 -78 0 19 -62 131 -129 229 -201 299 -440 494 -736 598 -86
31 -215 63 -215 54z"/>
<path d="M8185 4134 c-269 -57 -536 -219 -737 -448 -112 -129 -278 -381 -278
-424 0 -25 210 25 327 78 209 95 447 319 634 599 66 97 124 200 117 205 -2 2
-30 -3 -63 -10z"/>
<path d="M2713 3705 c15 -37 90 -157 147 -235 133 -179 308 -335 454 -404 81
-39 204 -76 254 -76 l34 0 -42 78 c-129 239 -334 444 -555 555 -67 33 -190 76
-264 92 -29 6 -33 5 -28 -10z"/>
<path d="M7180 3694 c-102 -30 -232 -90 -315 -146 -169 -115 -340 -310 -434
-495 l-31 -63 33 0 c94 0 293 82 407 169 132 100 307 301 400 462 50 85 56 99
39 98 -8 0 -52 -11 -99 -25z"/>
<path d="M2257 3199 c-128 -13 -131 -16 -55 -76 156 -124 408 -263 583 -322
204 -68 398 -79 574 -31 23 6 41 15 39 19 -6 16 -114 103 -193 156 -95 63
-271 152 -373 189 -161 57 -394 84 -575 65z"/>
<path d="M7460 3199 c-216 -21 -452 -113 -675 -262 -66 -45 -178 -135 -183
-148 -2 -4 14 -13 35 -18 324 -92 736 32 1147 342 59 45 75 62 64 68 -17 9
-214 30 -268 28 -19 -1 -73 -5 -120 -10z"/>
<path d="M3427 2913 c-3 -5 22 -30 56 -55 245 -178 504 -257 695 -211 l23 5
-22 24 c-60 64 -229 157 -372 206 -81 27 -109 31 -233 36 -86 3 -144 1 -147
-5z"/>
<path d="M6294 2909 c-140 -23 -393 -148 -473 -233 l-22 -24 23 -5 c191 -46
450 33 695 211 34 25 60 49 57 54 -7 10 -212 8 -280 -3z"/>
<path d="M3090 2651 c-47 -10 -116 -31 -154 -45 -74 -28 -186 -87 -186 -97 0
-15 206 -78 359 -109 263 -53 523 -63 681 -25 99 23 211 66 207 79 -12 36
-228 133 -397 178 -100 27 -136 31 -270 34 -124 3 -172 0 -240 -15z"/>
<path d="M6476 2650 c-131 -28 -239 -65 -353 -121 -110 -54 -136 -75 -113 -89
32 -20 175 -61 262 -75 165 -27 371 -15 619 35 164 34 359 93 359 110 0 11
-170 93 -235 114 -153 49 -377 60 -539 26z"/>
<path d="M4432 2580 c-35 -5 -87 -17 -115 -26 -65 -21 -167 -72 -167 -83 0
-14 151 -42 260 -48 150 -7 296 28 375 92 17 14 18 17 5 25 -49 31 -255 53
-358 40z"/>
<path d="M5378 2580 c-76 -9 -178 -37 -178 -48 0 -14 105 -70 165 -89 83 -25
288 -24 403 1 45 11 82 23 82 28 0 14 -138 76 -205 92 -81 20 -186 26 -267 16z"/>
<path d="M4954 2541 c-32 -14 -64 -60 -64 -93 0 -21 11 -41 34 -64 28 -28 42
-34 76 -34 34 0 48 6 76 34 43 43 45 83 7 126 -30 34 -89 48 -129 31z"/>
<path d="M4167 2176 c-70 -19 -119 -71 -132 -139 l-7 -37 71 0 c53 0 71 3 71
13 0 22 34 47 63 47 36 0 61 -38 48 -72 -5 -14 -63 -74 -129 -134 l-121 -109
2 -45 2 -45 200 0 200 0 3 62 3 62 -91 3 -90 3 55 43 c85 67 108 103 113 178
4 52 0 69 -17 98 -40 63 -152 97 -244 72z"/>
<path d="M4683 2180 c-90 -19 -164 -78 -199 -158 -23 -51 -23 -156 -1 -214 26
-66 100 -132 173 -154 229 -66 426 139 344 359 -45 119 -186 194 -317 167z
m127 -146 c40 -24 64 -71 64 -125 0 -80 -50 -131 -127 -131 -89 0 -137 49
-137 141 0 39 6 56 27 81 14 18 36 36 47 40 35 14 96 11 126 -6z"/>
<path d="M5189 2181 c-78 -16 -149 -91 -149 -159 0 -21 5 -22 70 -22 54 0 70
3 70 14 0 38 70 62 98 34 18 -18 15 -62 -7 -89 -10 -13 -66 -67 -125 -119
l-106 -95 0 -48 0 -47 203 2 202 3 3 62 3 62 -92 3 -92 3 57 45 c72 58 107
108 113 164 7 60 -1 89 -38 130 -42 49 -132 73 -210 57z"/>
<path d="M5501 1998 c-7 -95 -15 -181 -17 -190 -5 -16 3 -18 70 -18 52 0 77 4
83 14 12 19 48 36 78 36 35 0 85 -50 85 -85 0 -33 -24 -81 -45 -89 -47 -18
-125 13 -125 50 0 11 -17 14 -76 14 l-76 0 6 -31 c18 -90 78 -150 172 -169
109 -23 220 25 263 112 25 52 29 151 7 201 -17 41 -74 91 -121 107 -44 14
-118 7 -151 -15 -35 -23 -34 -27 -19 68 l6 37 139 0 140 0 0 65 0 65 -204 0
-203 0 -12 -172z"/>
</g>
</svg>
